<svg xmlns="http://www.w3.org/2000/svg" width="382" height="324" viewBox="0 0 382 324" font-family="SFMono-Regular,Menlo,Consolas,monospace">
<rect x="0" y="0" width="382" height="324" rx="12" fill="#15181E"/>
<rect x="0" y="32" width="382" height="292" fill="#0E1725"/>
<circle cx="20" cy="16" r="6" fill="#FF5F56"/>
<circle cx="40" cy="16" r="6" fill="#FFBD2E"/>
<circle cx="60" cy="16" r="6" fill="#27C93F"/>
<text x="191" y="21" text-anchor="middle" fill="#8899A6" font-size="12">timer t</text>
<rect x="37.1" y="52.0" width="51.3" height="18" fill="#0A2847"/>
<rect x="37.1" y="70.0" width="51.3" height="18" fill="#FFFFFF"/>
<rect x="37.1" y="88.0" width="51.3" height="18" fill="#282A36"/>
<rect x="37.1" y="106.0" width="51.3" height="18" fill="#000000"/>
<rect x="37.1" y="124.0" width="51.3" height="18" fill="#000000"/>
<rect x="37.1" y="142.0" width="51.3" height="18" fill="#000000"/>
<rect x="37.1" y="160.0" width="51.3" height="18" fill="#000000"/>
<rect x="37.1" y="178.0" width="51.3" height="18" fill="#0E1724"/>
<rect x="37.1" y="196.0" width="51.3" height="18" fill="#FFFFFF"/>
<rect x="37.1" y="214.0" width="51.3" height="18" fill="#283048"/>
<rect x="37.1" y="232.0" width="51.3" height="18" fill="#000000"/>
<text x="45.7" y="65.3" fill="#E8F0F5" font-size="15" xml:space="preserve">●●●●</text>
<text x="97.0" y="65.3" fill="#EAEFEF" font-size="15" xml:space="preserve">abyss</text>
<text x="45.7" y="83.3" fill="#1D4ED8" font-size="15" xml:space="preserve">●●●●</text>
<text x="97.0" y="83.3" fill="#EAEFEF" font-size="15" xml:space="preserve">daylight</text>
<text x="45.7" y="101.3" fill="#F8F8F2" font-size="15" xml:space="preserve">●●●●</text>
<text x="97.0" y="101.3" fill="#EAEFEF" font-size="15" xml:space="preserve">dracula</text>
<text x="45.7" y="119.3" fill="#FF6B34" font-size="15" xml:space="preserve">●●●●</text>
<text x="97.0" y="119.3" fill="#EAEFEF" font-size="15" xml:space="preserve">ember</text>
<text x="45.7" y="137.3" fill="#38FF14" font-size="15" xml:space="preserve">●●●●</text>
<text x="97.0" y="137.3" fill="#EAEFEF" font-size="15" xml:space="preserve">matrix</text>
<text x="45.7" y="155.3" fill="#00E5FF" font-size="15" xml:space="preserve">●●●●</text>
<text x="97.0" y="155.3" fill="#EAEFEF" font-size="15" xml:space="preserve">midnight</text>
<text x="45.7" y="173.3" fill="#FFFFFF" font-size="15" xml:space="preserve">●●●●</text>
<text x="97.0" y="173.3" fill="#EAEFEF" font-size="15" xml:space="preserve">mono</text>
<text x="20.0" y="191.3" fill="#EAEFEF" font-size="15" xml:space="preserve">*</text>
<text x="45.7" y="191.3" fill="#C9D9E0" font-size="15" xml:space="preserve">●●●●</text>
<text x="97.0" y="191.3" fill="#EAEFEF" font-size="15" xml:space="preserve">obsidian</text>
<text x="45.7" y="209.3" fill="#111827" font-size="15" xml:space="preserve">●●●●</text>
<text x="97.0" y="209.3" fill="#EAEFEF" font-size="15" xml:space="preserve">paper</text>
<text x="45.7" y="227.3" fill="#EAEFEF" font-size="15" xml:space="preserve">●●●●</text>
<text x="97.0" y="227.3" fill="#EAEFEF" font-size="15" xml:space="preserve">slate</text>
<text x="45.7" y="245.3" fill="#FF00FF" font-size="15" xml:space="preserve">●●●●</text>
<text x="97.0" y="245.3" fill="#EAEFEF" font-size="15" xml:space="preserve">synthwave</text>
</svg>