<svg xmlns="http://www.w3.org/2000/svg" width="690" height="432" viewBox="0 0 690 432" font-family="SFMono-Regular,Menlo,Consolas,monospace">
<rect x="0" y="0" width="690" height="432" rx="12" fill="#15181E"/>
<rect x="0" y="32" width="690" height="400" fill="#0E1725"/>
<circle cx="20" cy="16" r="6" fill="#FF5F56"/>
<circle cx="40" cy="16" r="6" fill="#FFBD2E"/>
<circle cx="60" cy="16" r="6" fill="#27C93F"/>
<text x="345" y="21" text-anchor="middle" fill="#8899A6" font-size="12">timer c 25m &quot;Focus&quot;</text>
<rect x="20.0" y="52.0" width="649.8" height="18" fill="#282A36"/>
<rect x="20.0" y="70.0" width="649.8" height="18" fill="#282A36"/>
<rect x="20.0" y="88.0" width="649.8" height="18" fill="#282A36"/>
<rect x="20.0" y="106.0" width="649.8" height="18" fill="#282A36"/>
<rect x="20.0" y="124.0" width="649.8" height="18" fill="#282A36"/>
<rect x="20.0" y="142.0" width="649.8" height="18" fill="#282A36"/>
<rect x="20.0" y="160.0" width="649.8" height="18" fill="#282A36"/>
<rect x="20.0" y="178.0" width="649.8" height="18" fill="#282A36"/>
<rect x="20.0" y="196.0" width="649.8" height="18" fill="#282A36"/>
<rect x="20.0" y="214.0" width="649.8" height="18" fill="#282A36"/>
<rect x="20.0" y="232.0" width="649.8" height="18" fill="#282A36"/>
<rect x="20.0" y="250.0" width="649.8" height="18" fill="#282A36"/>
<rect x="20.0" y="268.0" width="649.8" height="18" fill="#282A36"/>
<rect x="20.0" y="286.0" width="85.5" height="18" fill="#282A36"/>
<rect x="216.7" y="286.0" width="8.6" height="18" fill="#282A36"/>
<rect x="575.8" y="286.0" width="94.1" height="18" fill="#282A36"/>
<rect x="20.0" y="304.0" width="649.8" height="18" fill="#282A36"/>
<rect x="20.0" y="322.0" width="649.8" height="18" fill="#282A36"/>
<rect x="20.0" y="340.0" width="649.8" height="18" fill="#282A36"/>
<rect x="20.0" y="358.0" width="649.8" height="18" fill="#282A36"/>
<rect x="20.0" y="376.0" width="649.8" height="18" fill="#282A36"/>
<text x="319.2" y="83.3" fill="#BD93F9" font-size="15" font-weight="700" xml:space="preserve">Focus</text>
<text x="114.1" y="173.3" fill="#F8F8F2" font-size="15" font-weight="700" xml:space="preserve">█████</text>
<text x="182.5" y="173.3" fill="#F8F8F2" font-size="15" font-weight="700" xml:space="preserve">█████</text>
<text x="285.1" y="173.3" fill="#F8F8F2" font-size="15" font-weight="700" xml:space="preserve">█████</text>
<text x="353.5" y="173.3" fill="#F8F8F2" font-size="15" font-weight="700" xml:space="preserve">█████</text>
<text x="456.1" y="173.3" fill="#F8F8F2" font-size="15" font-weight="700" xml:space="preserve">█████</text>
<text x="524.5" y="173.3" fill="#F8F8F2" font-size="15" font-weight="700" xml:space="preserve">█████</text>
<text x="105.5" y="191.3" fill="#F8F8F2" font-size="15" font-weight="700" xml:space="preserve">█</text>
<text x="156.8" y="191.3" fill="#F8F8F2" font-size="15" font-weight="700" xml:space="preserve">█</text>
<text x="173.9" y="191.3" fill="#F8F8F2" font-size="15" font-weight="700" xml:space="preserve">█</text>
<text x="225.2" y="191.3" fill="#F8F8F2" font-size="15" font-weight="700" xml:space="preserve">█</text>
<text x="250.9" y="191.3" fill="#F8F8F2" font-size="15" font-weight="700" xml:space="preserve">█</text>
<text x="276.5" y="191.3" fill="#F8F8F2" font-size="15" font-weight="700" xml:space="preserve">█</text>
<text x="327.8" y="191.3" fill="#F8F8F2" font-size="15" font-weight="700" xml:space="preserve">█</text>
<text x="344.9" y="191.3" fill="#F8F8F2" font-size="15" font-weight="700" xml:space="preserve">█</text>
<text x="396.2" y="191.3" fill="#F8F8F2" font-size="15" font-weight="700" xml:space="preserve">█</text>
<text x="421.9" y="191.3" fill="#F8F8F2" font-size="15" font-weight="700" xml:space="preserve">█</text>
<text x="447.5" y="191.3" fill="#F8F8F2" font-size="15" font-weight="700" xml:space="preserve">█</text>
<text x="498.8" y="191.3" fill="#F8F8F2" font-size="15" font-weight="700" xml:space="preserve">█</text>
<text x="515.9" y="191.3" fill="#F8F8F2" font-size="15" font-weight="700" xml:space="preserve">█</text>
<text x="105.5" y="209.3" fill="#F8F8F2" font-size="15" font-weight="700" xml:space="preserve">█</text>
<text x="156.8" y="209.3" fill="#F8F8F2" font-size="15" font-weight="700" xml:space="preserve">█</text>
<text x="173.9" y="209.3" fill="#F8F8F2" font-size="15" font-weight="700" xml:space="preserve">█</text>
<text x="225.2" y="209.3" fill="#F8F8F2" font-size="15" font-weight="700" xml:space="preserve">█</text>
<text x="250.9" y="209.3" fill="#F8F8F2" font-size="15" font-weight="700" xml:space="preserve">█</text>
<text x="276.5" y="209.3" fill="#F8F8F2" font-size="15" font-weight="700" xml:space="preserve">█</text>
<text x="327.8" y="209.3" fill="#F8F8F2" font-size="15" font-weight="700" xml:space="preserve">█</text>
<text x="344.9" y="209.3" fill="#F8F8F2" font-size="15" font-weight="700" xml:space="preserve">█</text>
<text x="396.2" y="209.3" fill="#F8F8F2" font-size="15" font-weight="700" xml:space="preserve">█</text>
<text x="421.9" y="209.3" fill="#F8F8F2" font-size="15" font-weight="700" xml:space="preserve">█</text>
<text x="447.5" y="209.3" fill="#F8F8F2" font-size="15" font-weight="700" xml:space="preserve">█</text>
<text x="498.8" y="209.3" fill="#F8F8F2" font-size="15" font-weight="700" xml:space="preserve">█</text>
<text x="515.9" y="209.3" fill="#F8F8F2" font-size="15" font-weight="700" xml:space="preserve">█</text>
<text x="524.5" y="227.3" fill="#F8F8F2" font-size="15" font-weight="700" xml:space="preserve">█████</text>
<text x="105.5" y="245.3" fill="#F8F8F2" font-size="15" font-weight="700" xml:space="preserve">█</text>
<text x="156.8" y="245.3" fill="#F8F8F2" font-size="15" font-weight="700" xml:space="preserve">█</text>
<text x="173.9" y="245.3" fill="#F8F8F2" font-size="15" font-weight="700" xml:space="preserve">█</text>
<text x="225.2" y="245.3" fill="#F8F8F2" font-size="15" font-weight="700" xml:space="preserve">█</text>
<text x="250.9" y="245.3" fill="#F8F8F2" font-size="15" font-weight="700" xml:space="preserve">█</text>
<text x="276.5" y="245.3" fill="#F8F8F2" font-size="15" font-weight="700" xml:space="preserve">█</text>
<text x="327.8" y="245.3" fill="#F8F8F2" font-size="15" font-weight="700" xml:space="preserve">█</text>
<text x="344.9" y="245.3" fill="#F8F8F2" font-size="15" font-weight="700" xml:space="preserve">█</text>
<text x="396.2" y="245.3" fill="#F8F8F2" font-size="15" font-weight="700" xml:space="preserve">█</text>
<text x="421.9" y="245.3" fill="#F8F8F2" font-size="15" font-weight="700" xml:space="preserve">█</text>
<text x="447.5" y="245.3" fill="#F8F8F2" font-size="15" font-weight="700" xml:space="preserve">█</text>
<text x="498.8" y="245.3" fill="#F8F8F2" font-size="15" font-weight="700" xml:space="preserve">█</text>
<text x="515.9" y="245.3" fill="#F8F8F2" font-size="15" font-weight="700" xml:space="preserve">█</text>
<text x="567.2" y="245.3" fill="#F8F8F2" font-size="15" font-weight="700" xml:space="preserve">█</text>
<text x="105.5" y="263.3" fill="#F8F8F2" font-size="15" font-weight="700" xml:space="preserve">█</text>
<text x="156.8" y="263.3" fill="#F8F8F2" font-size="15" font-weight="700" xml:space="preserve">█</text>
<text x="173.9" y="263.3" fill="#F8F8F2" font-size="15" font-weight="700" xml:space="preserve">█</text>
<text x="225.2" y="263.3" fill="#F8F8F2" font-size="15" font-weight="700" xml:space="preserve">█</text>
<text x="250.9" y="263.3" fill="#F8F8F2" font-size="15" font-weight="700" xml:space="preserve">█</text>
<text x="276.5" y="263.3" fill="#F8F8F2" font-size="15" font-weight="700" xml:space="preserve">█</text>
<text x="327.8" y="263.3" fill="#F8F8F2" font-size="15" font-weight="700" xml:space="preserve">█</text>
<text x="344.9" y="263.3" fill="#F8F8F2" font-size="15" font-weight="700" xml:space="preserve">█</text>
<text x="396.2" y="263.3" fill="#F8F8F2" font-size="15" font-weight="700" xml:space="preserve">█</text>
<text x="421.9" y="263.3" fill="#F8F8F2" font-size="15" font-weight="700" xml:space="preserve">█</text>
<text x="447.5" y="263.3" fill="#F8F8F2" font-size="15" font-weight="700" xml:space="preserve">█</text>
<text x="498.8" y="263.3" fill="#F8F8F2" font-size="15" font-weight="700" xml:space="preserve">█</text>
<text x="515.9" y="263.3" fill="#F8F8F2" font-size="15" font-weight="700" xml:space="preserve">█</text>
<text x="567.2" y="263.3" fill="#F8F8F2" font-size="15" font-weight="700" xml:space="preserve">█</text>
<text x="114.1" y="281.3" fill="#F8F8F2" font-size="15" font-weight="700" xml:space="preserve">█████</text>
<text x="182.5" y="281.3" fill="#F8F8F2" font-size="15" font-weight="700" xml:space="preserve">█████</text>
<text x="285.1" y="281.3" fill="#F8F8F2" font-size="15" font-weight="700" xml:space="preserve">█████</text>
<text x="353.5" y="281.3" fill="#F8F8F2" font-size="15" font-weight="700" xml:space="preserve">█████</text>
<text x="456.1" y="281.3" fill="#F8F8F2" font-size="15" font-weight="700" xml:space="preserve">█████</text>
<text x="524.5" y="281.3" fill="#F8F8F2" font-size="15" font-weight="700" xml:space="preserve">█████</text>
<text x="216.7" y="299.3" fill="#BD93F9" font-size="15" xml:space="preserve">█████████</text>
<text x="293.6" y="299.3" fill="#606060" font-size="15" xml:space="preserve">░░░░░░░░░░░░░░░░</text>
<text x="447.5" y="299.3" fill="#EAEFEF" font-size="15" xml:space="preserve">35%</text>
<text x="182.5" y="389.3" fill="#50FA7B" font-size="15" font-weight="700" xml:space="preserve">s=stop</text>
<text x="250.9" y="389.3" fill="#50FA7B" font-size="15" font-weight="700" xml:space="preserve">p=pause</text>
<text x="327.8" y="389.3" fill="#6171A3" font-size="15" xml:space="preserve">c=continue</text>
<text x="430.4" y="389.3" fill="#50FA7B" font-size="15" font-weight="700" xml:space="preserve">r=restart</text>
</svg>